# AST/ASF file generated using VICON BodyLanguage
# -----------------------------------------------
:version 1.10
:name VICON
:units
  mass 1.0
  length 0.45
  angle deg
:documentation
   .ast/.asf automatically generated from VICON data using
   VICON BodyBuilder and BodyLanguage model FoxedUp or BRILLIANT.MOD
:root
   order TX TY TZ RX RY RZ
   axis XYZ
   position 0 0 0  
   orientation 0 0 0 
:bonedata
  begin
     id 1 
     name lhipjoint
     direction 0.710188 -0.616876 0.339259 
     length 2.5669 
     axis 0 0 0  XYZ
  end
  begin
     id 2 
     name lfemur
     direction 0.34202 -0.939693 0  
     length 7.12796  
     axis 0 0 20  XYZ
    dof rx ry rz
    limits (-160.0 20.0)
           (-70.0 70.0)
           (-60.0 70.0)
  end
  begin
     id 3 
     name ltibia
     direction 0.34202 -0.939693 0   
     length 7.58108   
     axis 0 0 20   XYZ
    dof rx
    limits (-10.0 170.0)
  end
  begin
     id 4 
     name lfoot
     direction 0.0669471 -0.183936 0.980656   
     length 2.17365   
     axis -90 7.62852e-016 20   XYZ
    dof rx rz
    limits (-45.0 90.0)
           (-70.0 20.0)
  end
  begin
     id 5 
     name ltoes
     direction 1.53508e-011 -4.21705e-011 1   
     length 1.09427   
     axis -90 7.62852e-016 20   XYZ
    dof rx
    limits (-90.0 20.0)
  end
  begin
     id 6 
     name rhipjoint
     direction -0.700191 -0.625589 0.34405   
     length 2.53115  
     axis 0 0 0  XYZ 
  end
  begin
     id 7 
     name rfemur
     direction -0.34202 -0.939693 0   
     length 7.33006   
     axis 0 0 -20   XYZ
    dof rx ry rz
    limits (-160.0 20.0)
           (-70.0 70.0)
           (-70.0 60.0)
  end
  begin
     id 8 
     name rtibia
     direction -0.34202 -0.939693 0   
     length 7.64926   
     axis 0 0 -20   XYZ
    dof rx
    limits (-10.0 170.0)
 end
 begin
     id 9 
     name rfoot
     direction -0.0688927 -0.189281 0.979503   
     length 2.20493  
     axis -90 -7.62852e-016 -20   XYZ
    dof rx rz
    limits (-45.0 90.0)
           (-20.0 70.0)
  end
  begin
     id 10 
     name rtoes
     direction -1.53567e-011 -4.21933e-011 1   
     length 1.10919   
     axis -90 -7.62852e-016 -20   XYZ
    dof rx
    limits (-90.0 20.0)
  end
  begin
     id 11 
     name lowerback
     direction -0.0167868 0.989873 -0.140959   
     length 2.14596   
     axis 0 0 0   XYZ
    dof rx ry rz
    limits (-20.0 45.0)
           (-30.0 30.0)
           (-30.0 30.0)
  end
  begin
     id 12 
     name upperback
     direction 0.0129109 0.998033 0.0613525   
     length 2.10457   
     axis 0 0 0   XYZ
    dof rx ry rz
    limits (-20.0 45.0)
           (-30.0 30.0)
           (-30.0 30.0)
  end
  begin
     id 13 
     name thorax
     direction 0.0177047 0.991119 0.131797   
     length 2.17652   
     axis 0 0 0   XYZ
    dof rx ry rz
    limits (-20.0 45.0)
           (-30.0 30.0)
           (-30.0 30.0)
  end
  begin
     id 14 
     name lowerneck
     direction -0.0336893 0.997548 0.0613464   
     length 1.8912   
     axis 0 0 0   XYZ
    dof rx ry rz
    limits (-20.0 45.0)
           (-30.0 30.0)
           (-30.0 30.0)
  end
  begin
     id 15 
     name upperneck
     direction 0.0435909 0.997179 -0.0611028   
     length 1.8829   
     axis 0 0 0   XYZ
    dof rx ry rz
    limits (-20.0 45.0)
           (-30.0 30.0)
           (-30.0 30.0)
  end
  begin
     id 16
     name head
     direction 0.0175076 0.999444 -0.0283782  
     length 1.93197  
     axis 0 0 0   XYZ
    dof rx ry rz
    limits (-20.0 45.0)
           (-30.0 30.0)
           (-30.0 30.0)
  end
  begin
     id 17 
     name lclavicle
     direction 0.919164 0.389875 0.0559876  
     length 3.60004  
     axis 0 0 0   XYZ
    dof ry rz
    limits (-20.0 10.0)
           (0.0 20.0)
  end
  begin
     id 18 
     name lhumerus
     direction 1 -4.48958e-011 6.89191e-027   
     length 5.43301   
     axis 180 -30 -90   XYZ
    dof rx ry rz
    limits (-60.0 90.0)
           (-90.0 90.0)
           (-90.0 90.0)
  end
  begin
     id 19
     name lradius
     direction 1 -4.4897e-011 3.24727e-027   
     length 3.15936   
     axis 180 -30 -90   XYZ
    dof rx
    limits (-10.0 170.0)
  end
  begin
     id 20
     name lwrist
     direction 1 -4.4897e-011 9.00228e-027   
     length 1.57968   
     axis -6.29373e-015 90 90   XYZ
    dof ry
    limits (-180.0 0.0)
 end
  begin
     id 21 
     name lhand
     direction 1 -4.48968e-011 1.80042e-026   
     length 0.712827   
     axis -1.14882e-014 90 90   XYZ
    dof rx rz
    limits (-90.0 90.0)
           (-45.0 45.0)
  end
  begin
     id 22 
     name lfingers
     direction 1 -4.49019e-011 3.60267e-026   
     length 0.574699   
     axis -2.29769e-014 90 90   XYZ
    dof rx
    limits (0.0 90.0)
  end
  begin
     id 23
     name lthumb
     direction 0.707107 -6.3498e-011 0.707107   
     length 0.825157   
     axis -90 45 5.37419e-014   XYZ
    dof rx rz
    limits (-45.0 45.0)
           (-45.0 45.0)
  end
  begin
     id 24 
     name rclavicle
     direction -0.890334 0.455305 -0.00132111   
     length 3.51494  
     axis 0 0 0   XYZ 
    dof ry rz
    limits (-10.0 20.0)
           (-20.0 0.0)
  end
  begin
     id 25 
     name rhumerus
     direction -1 -4.48967e-011 5.07175e-028  
     length 5.34194   
     axis 180 30 90   XYZ
    dof rx ry rz
    limits (-90.0 60.0)
           (-90.0 90.0)
           (-90.0 90.0)
  end
  begin
     id 26 
     name rradius
     direction -1 -4.48955e-011 3.30467e-027   
     length 3.19351   
     axis 180 30 90   XYZ
    dof rx
    limits (-10.0 170.0)
  end
  begin
     id 27 
     name rwrist
     direction -1 -4.48968e-011 9.00208e-027   
     length 1.59676   
     axis -6.29373e-015 -90 -90   XYZ
    dof ry
    limits (-180.0 0.0)
  end
  begin
     id 28
     name rhand
     direction -1 -4.49e-011 1.80099e-026   
     length 0.743862   
     axis -1.14882e-014 -90 -90   XYZ
    dof rx rz
    limits (-90.0 90.0)
           (-45.0 45.0)
  end
  begin
     id 29
     name rfingers
     direction -1 -4.49009e-011 3.6023e-026   
     length 0.599721   
     axis -2.29769e-014 -90 -90   XYZ
    dof rx
    limits (0.0 90.0)
  end
  begin
     id 30
     name rthumb
     direction -0.707107 -6.35025e-011 0.707107   
     length 0.861083   
     axis -90 -45 -5.37419e-014   XYZ
    dof rx rz
    limits (-45.0 45.0)
           (-45.0 45.0)
  end
:hierarchy
  begin
    root lhipjoint rhipjoint lowerback
    lhipjoint lfemur
    lfemur ltibia
    ltibia lfoot
    lfoot ltoes
    rhipjoint rfemur
    rfemur rtibia
    rtibia rfoot
    rfoot rtoes
    lowerback upperback
    upperback thorax
    thorax lowerneck lclavicle rclavicle
    lowerneck upperneck
    upperneck head
    lclavicle lhumerus
    lhumerus lradius
    lradius lwrist
    lwrist lhand lthumb
    lhand lfingers
    rclavicle rhumerus
    rhumerus rradius
    rradius rwrist
    rwrist rhand rthumb
    rhand rfingers
  end

#!OML:ASF H:\Martial Arts Walks\Project 1\Capture day 1\Session 1\male.ASF
:FULLY-SPECIFIED
:DEGREES
165
root -1.88681 14.7899 -36.012 8.23414 -25.4414 -12.0394
lowerback 12.859 4.858 5.36064
upperback -0.115555 7.42226 2.45154
thorax -6.96531 3.46577 -1.75541
lowerneck -3.26589 -0.366687 -3.2749
upperneck 2.83155 -0.498016 4.59595
head 1.47424 -0.199908 2.00796
rclavicle -6.16232e-015 1.27222e-014
rhumerus -20.2714 32.6653 -80.6494
rradius 51.3914
rwrist 12.0952
rhand -16.5872 -39.049
rfingers 7.12502
rthumb 9.63363 -68.8087
lclavicle -6.16232e-015 1.27222e-014
lhumerus -16.0573 -11.0274 78.1682
lradius 50.2141
lwrist -3.58249
lhand -29.5076 18.4736
lfingers 7.12502
lthumb -2.84195 48.4344
rfemur -1.37687 -11.3511 16.4982
rtibia 48.8088
rfoot -30.7327 -29.87
rtoes -8.98598
lfemur -58.9068 25.6102 -6.98973
ltibia 61.3828
lfoot -2.71022 1.62838
ltoes 0.907375
166
root -1.88417 14.7766 -36.0012 8.26667 -25.4021 -12.1081
lowerback 12.8845 4.84162 5.48366
upperback -0.10923 7.41968 2.44955
thorax -6.95741 3.46021 -1.82577
lowerneck -3.24224 -0.363261 -3.29032
upperneck 2.72644 -0.490747 4.61475
head 1.43635 -0.196803 2.01605
rclavicle -8.17005e-014 -1.07344e-014
rhumerus -19.9717 33.0723 -80.4643
rradius 51.7524
rwrist 12.4712
rhand -16.8503 -38.78
rfingers 7.12502
rthumb 9.37978 -68.5513
lclavicle -8.17005e-014 -1.07344e-014
lhumerus -15.8297 -11.0767 78.0497
lradius 50.5926
lwrist -2.98011
lhand -29.2114 18.6471
lfingers 7.12502
lthumb -2.55585 48.6115
rfemur -1.22718 -11.5914 16.3744
rtibia 48.729
rfoot -30.5957 -29.8106
rtoes -8.9479
lfemur -59.0843 25.4909 -6.92363
ltibia 61.6569
lfoot -2.54619 1.17096
ltoes 2.3393
167
root -1.88176 14.763 -35.9875 8.32777 -25.369 -12.1974
lowerback 12.8483 4.81713 5.64257
upperback -0.090341 7.40614 2.44936
thorax -6.89784 3.45048 -1.90499
lowerneck -3.2915 -0.36484 -3.288
upperneck 2.73081 -0.490932 4.587
head 1.44618 -0.196779 2.00681
rclavicle -1.799e-014 1.19271e-015
rhumerus -19.7467 33.4776 -80.2962
rradius 52.2191
rwrist 12.8706
rhand -17.4431 -38.0943
rfingers 7.12502
rthumb 8.8078 -67.8905
lclavicle -1.799e-014 1.19271e-015
lhumerus -15.6413 -11.1405 77.9338
lradius 50.9994
lwrist -2.49496
lhand -29.0661 18.8384
lfingers 7.12502
lthumb -2.41552 48.8045
rfemur -1.11821 -11.8727 16.2441
rtibia 48.6481
rfoot -30.2414 -29.4383
rtoes -10.1064
lfemur -59.2824 25.3494 -6.8263
ltibia 61.9611
lfoot -2.20047 0.762201
ltoes 3.93636
168
root -1.88092 14.7493 -35.9772 8.35641 -25.3537 -12.3414
lowerback 12.917 4.807 5.80196
upperback -0.0793229 7.42227 2.47637
thorax -6.90761 3.45239 -1.97189
lowerneck -3.27736 -0.369345 -3.25947
upperneck 2.65331 -0.495369 4.56029
head 1.41854 -0.199623 1.99207
rclavicle -6.97237e-014 -3.69739e-014
rhumerus -19.5638 33.8143 -80.1106
rradius 52.6958
rwrist 13.1885
rhand -17.7931 -38.0138
rfingers 7.12502
rthumb 8.47 -67.824
lclavicle -6.97237e-014 -3.69739e-014
lhumerus -15.4877 -11.1758 77.8503
lradius 51.3338
lwrist -2.10898
lhand -28.9181 18.6587
lfingers 7.12502
lthumb -2.27263 48.6263
rfemur -1.01594 -12.054 16.222
rtibia 48.5897
rfoot -29.6521 -29.438
rtoes -11.1853
lfemur -59.421 25.2782 -6.64399
ltibia 62.2764
lfoot -1.91004 0.651959
ltoes 5.51048
169
root -1.88118 14.7328 -35.9697 8.35572 -25.3628 -12.5551
lowerback 13.062 4.81564 5.98668
upperback -0.0588504 7.47487 2.5347
thorax -6.94875 3.4701 -2.03288
lowerneck -3.17212 -0.369637 -3.2404
upperneck 2.44211 -0.492467 4.55045
head 1.33209 -0.200182 1.98324
rclavicle 3.17062e-014 -3.55825e-014
rhumerus -19.4133 34.0341 -79.9051
rradius 53.1703
rwrist 13.4981
rhand -17.4968 -38.4968
rfingers 7.12502
rthumb 8.7559 -68.2952
lclavicle 3.17062e-014 -3.55825e-014
lhumerus -15.3301 -11.2241 77.8023
lradius 51.6014
lwrist -1.80756
lhand -28.8582 18.918
lfingers 7.12502
lthumb -2.21478 48.8862
rfemur -0.883828 -12.1842 16.2707
rtibia 48.5592
rfoot -28.9356 -29.6556
rtoes -13.0105
lfemur -59.5199 25.285 -6.37834
ltibia 62.6001
lfoot -1.97433 0.759717
ltoes 5.27827
170
root -1.88165 14.7151 -35.9602 8.35168 -25.3682 -12.7333
lowerback 13.2238 4.81188 6.14385
upperback -0.0222577 7.50729 2.58901
thorax -6.98602 3.47912 -2.0806
lowerneck -3.30901 -0.411585 -3.2166
upperneck 2.424 -0.54442 4.50661
head 1.35198 -0.225143 1.96398
rclavicle -6.56983e-014 4.57205e-015
rhumerus -19.1801 34.2938 -79.6785
rradius 53.627
rwrist 13.7102
rhand -17.976 -37.9714
rfingers 7.12502
rthumb 8.29351 -67.7886
lclavicle -6.56983e-014 4.57205e-015
lhumerus -15.1189 -11.2193 77.7486
lradius 51.8386
lwrist -1.42359
lhand -28.8684 19.0888
lfingers 7.12502
lthumb -2.22461 49.0569
rfemur -0.750268 -12.2265 16.3065
rtibia 48.5339
rfoot -28.4635 -29.7142
rtoes -15.408
lfemur -59.6062 25.2397 -6.12303
ltibia 62.9107
lfoot -2.11435 0.864663
ltoes 5.24437
171
root -1.8819 14.6991 -35.9507 8.45513 -25.406 -12.9676
lowerback 13.16 4.8321 6.32537
upperback 0.00737181 7.55781 2.65074
thorax -6.90063 3.50229 -2.11443
lowerneck -3.22213 -0.365235 -3.17696
upperneck 2.34508 -0.483402 4.48855
head 1.30845 -0.195893 1.95122
rclavicle -1.63003e-014 1.72943e-014
rhumerus -19.0669 34.515 -79.4958
rradius 54.1577
rwrist 13.9377
rhand -18.0213 -38.3431
rfingers 7.12502
rthumb 8.24975 -68.162
lclavicle -1.63003e-014 1.72943e-014
lhumerus -15.0292 -11.2987 77.7172
lradius 52.2341
lwrist -0.925596
lhand -28.8074 19.2817
lfingers 7.12502
lthumb -2.16571 49.2505
rfemur -0.707278 -12.1978 16.4344
rtibia 48.5115
rfoot -28.1871 -29.6915
rtoes -17.5609
lfemur -59.7541 25.1975 -5.82159
ltibia 63.196
lfoot -2.12133 0.975885
ltoes 4.8618
172
root -1.8846 14.6868 -35.9393 8.44813 -25.4539 -13.1112
lowerback 13.1937 4.83713 6.38022
upperback 0.0512477 7.57719 2.72479
thorax -6.87451 3.51237 -2.0708
lowerneck -3.21848 -0.347154 -3.1589
upperneck 2.28424 -0.45715 4.45031
head 1.28682 -0.183525 1.93552
rclavicle 1.84373e-014 4.13472e-014
rhumerus -18.9393 34.802 -79.2686
rradius 54.6706
rwrist 14.0314
rhand -16.5604 -39.2901
rfingers 7.12502
rthumb 9.65953 -69.0486
lclavicle 1.84373e-014 4.13472e-014
lhumerus -14.9716 -11.2155 77.7158
lradius 52.519
lwrist -0.599289
lhand -28.7242 19.3112
lfingers 7.12502
lthumb -2.08534 49.2807
rfemur -0.536184 -12.2152 16.4586
rtibia 48.4482
rfoot -27.6558 -29.9309
rtoes -19.7507
lfemur -59.7676 25.1764 -5.58315
ltibia 63.4303
lfoot -2.16719 1.06463
ltoes 4.84822
173
root -1.88807 14.6747 -35.9302 8.40031 -25.47 -13.1957
lowerback 13.2563 4.84567 6.38945
upperback 0.107135 7.59395 2.77115
thorax -6.85372 3.52221 -2.03328
lowerneck -3.27107 -0.350328 -3.15278
upperneck 2.25413 -0.460337 4.47477
head 1.28677 -0.184208 1.94236
rclavicle -5.40197e-014 5.96354e-015
rhumerus -18.7699 34.9772 -79.0565
rradius 55.1276
rwrist 14.0904
rhand -17.9861 -38.3012
rfingers 7.12502
rthumb 8.28379 -68.1187
lclavicle -5.40197e-014 5.96354e-015
lhumerus -14.8428 -11.2099 77.7019
lradius 52.7733
lwrist -0.223524
lhand -28.5509 19.5998
lfingers 7.12502
lthumb -1.91802 49.5709
rfemur -0.302415 -12.1849 16.448
rtibia 48.3564
rfoot -27.7189 -29.7814
rtoes -20.482
lfemur -59.7327 25.0419 -5.35463
ltibia 63.6276
lfoot -2.28029 1.22301
ltoes 4.71873
174
root -1.89248 14.6667 -35.9216 8.35355 -25.5108 -13.2619
lowerback 13.319 4.86512 6.38677
upperback 0.144088 7.62373 2.80032
thorax -6.85151 3.53752 -2.01058
lowerneck -3.26914 -0.355157 -3.12905
upperneck 2.20675 -0.466897 4.48723
head 1.27154 -0.187294 1.94166
rclavicle -7.524e-014 1.78906e-015
rhumerus -18.6322 35.1364 -78.8842
rradius 55.5398
rwrist 14.1229
rhand -16.6376 -39.676
rfingers 7.12502
rthumb 9.58505 -69.438
lclavicle -7.524e-014 1.78906e-015
lhumerus -14.7751 -11.2248 77.6917
lradius 52.9767
lwrist 0.0714302
lhand -28.4169 19.6094
lfingers 7.12502
lthumb -1.78859 49.5817
rfemur -0.0541084 -12.106 16.4361
rtibia 48.2127
rfoot -27.9865 -29.4794
rtoes -21.0507
lfemur -59.6435 24.8944 -5.11062
ltibia 63.7711
lfoot -2.37227 1.34933
ltoes 4.17999
175
root -1.89723 14.6556 -35.9116 8.43471 -25.4733 -13.4503
lowerback 13.2928 4.83609 6.46016
upperback 0.133524 7.60061 2.88016
thorax -6.85198 3.52479 -1.96087
lowerneck -3.1999 -0.331018 -3.12265
upperneck 2.1578 -0.435606 4.50616
head 1.24264 -0.172308 1.94664
rclavicle 5.13858e-014 1.51076e-014
rhumerus -18.6041 35.3691 -78.7792
rradius 55.9773
rwrist 14.0685
rhand -18.2233 -38.3744
rfingers 7.12502
rthumb 8.0548 -68.2009
lclavicle 5.13858e-014 1.51076e-014
lhumerus -14.8576 -11.1606 77.7022
lradius 53.2446
lwrist 0.383638
lhand -28.5403 19.624
lfingers 7.12502
lthumb -1.90776 49.5952
rfemur 0.114084 -12.0388 16.5915
rtibia 48.0549
rfoot -27.7351 -29.601
rtoes -22.4737
lfemur -59.6639 24.6623 -4.73302
ltibia 63.9019
lfoot -2.44924 1.45608
ltoes 4.00968
